<?xml version="1.0" encoding="utf-8" standalone="no"?>
<!DOCTYPE svg PUBLIC "-//W3C//DTD SVG 1.1//EN"
  "http://www.w3.org/Graphics/SVG/1.1/DTD/svg11.dtd">
<svg xmlns:xlink="http://www.w3.org/1999/xlink" width="460.8pt" height="345.6pt" viewBox="0 0 460.8 345.6" xmlns="http://www.w3.org/2000/svg" version="1.1">
 <metadata>
  <rdf:RDF xmlns:dc="http://purl.org/dc/elements/1.1/" xmlns:cc="http://creativecommons.org/ns#" xmlns:rdf="http://www.w3.org/1999/02/22-rdf-syntax-ns#">
   <cc:Work>
    <dc:type rdf:resource="http://purl.org/dc/dcmitype/StillImage"/>
    <dc:date>2024-12-10T12:44:29.687867</dc:date>
    <dc:format>image/svg+xml</dc:format>
    <dc:creator>
     <cc:Agent>
      <dc:title>Matplotlib v3.9.2, https://matplotlib.org/</dc:title>
     </cc:Agent>
    </dc:creator>
   </cc:Work>
  </rdf:RDF>
 </metadata>
 <defs>
  <style type="text/css">*{stroke-linejoin: round; stroke-linecap: butt}</style>
 </defs>
 <g id="figure_1">
  <g id="patch_1">
   <path d="M 0 345.6 
L 460.8 345.6 
L 460.8 0 
L 0 0 
z
" style="fill: #ffffff"/>
  </g>
  <g id="axes_1">
   <g id="patch_2">
    <path d="M 57.6 307.584 
L 414.72 307.584 
L 414.72 41.472 
L 57.6 41.472 
z
" style="fill: #ffffff"/>
   </g>
   <g id="patch_3">
    <path d="M 73.832727 307.584 
L 218.123636 307.584 
L 218.123636 173.103479 
L 73.832727 173.103479 
z
" clip-path="url(#p4e7b39f333)" style="fill: #ff0000; opacity: 0.3; stroke: #000000; stroke-width: 2; stroke-linejoin: miter"/>
   </g>
   <g id="patch_4">
    <path d="M 254.196364 307.584 
L 398.487273 307.584 
L 398.487273 195.862511 
L 254.196364 195.862511 
z
" clip-path="url(#p4e7b39f333)" style="fill: #0000ff; opacity: 0.3; stroke: #000000; stroke-width: 2; stroke-linejoin: miter"/>
   </g>
   <g id="matplotlib.axis_1">
    <g id="xtick_1">
     <g id="line2d_1">
      <defs>
       <path id="mf2eb1bd934" d="M 0 0 
L 0 3.5 
" style="stroke: #000000; stroke-width: 0.8"/>
      </defs>
      <g>
       <use xlink:href="#mf2eb1bd934" x="145.978182" y="307.584" style="stroke: #000000; stroke-width: 0.8"/>
      </g>
     </g>
     <g id="text_1">
      <!-- DeePC -->
      <g transform="translate(129.468807 322.182437) scale(0.1 -0.1)">
       <defs>
        <path id="DejaVuSans-44" d="M 1259 4147 
L 1259 519 
L 2022 519 
Q 2988 519 3436 956 
Q 3884 1394 3884 2338 
Q 3884 3275 3436 3711 
Q 2988 4147 2022 4147 
L 1259 4147 
z
M 628 4666 
L 1925 4666 
Q 3281 4666 3915 4102 
Q 4550 3538 4550 2338 
Q 4550 1131 3912 565 
Q 3275 0 1925 0 
L 628 0 
L 628 4666 
z
" transform="scale(0.015625)"/>
        <path id="DejaVuSans-65" d="M 3597 1894 
L 3597 1613 
L 953 1613 
Q 991 1019 1311 708 
Q 1631 397 2203 397 
Q 2534 397 2845 478 
Q 3156 559 3463 722 
L 3463 178 
Q 3153 47 2828 -22 
Q 2503 -91 2169 -91 
Q 1331 -91 842 396 
Q 353 884 353 1716 
Q 353 2575 817 3079 
Q 1281 3584 2069 3584 
Q 2775 3584 3186 3129 
Q 3597 2675 3597 1894 
z
M 3022 2063 
Q 3016 2534 2758 2815 
Q 2500 3097 2075 3097 
Q 1594 3097 1305 2825 
Q 1016 2553 972 2059 
L 3022 2063 
z
" transform="scale(0.015625)"/>
        <path id="DejaVuSans-50" d="M 1259 4147 
L 1259 2394 
L 2053 2394 
Q 2494 2394 2734 2622 
Q 2975 2850 2975 3272 
Q 2975 3691 2734 3919 
Q 2494 4147 2053 4147 
L 1259 4147 
z
M 628 4666 
L 2053 4666 
Q 2838 4666 3239 4311 
Q 3641 3956 3641 3272 
Q 3641 2581 3239 2228 
Q 2838 1875 2053 1875 
L 1259 1875 
L 1259 0 
L 628 0 
L 628 4666 
z
" transform="scale(0.015625)"/>
        <path id="DejaVuSans-43" d="M 4122 4306 
L 4122 3641 
Q 3803 3938 3442 4084 
Q 3081 4231 2675 4231 
Q 1875 4231 1450 3742 
Q 1025 3253 1025 2328 
Q 1025 1406 1450 917 
Q 1875 428 2675 428 
Q 3081 428 3442 575 
Q 3803 722 4122 1019 
L 4122 359 
Q 3791 134 3420 21 
Q 3050 -91 2638 -91 
Q 1578 -91 968 557 
Q 359 1206 359 2328 
Q 359 3453 968 4101 
Q 1578 4750 2638 4750 
Q 3056 4750 3426 4639 
Q 3797 4528 4122 4306 
z
" transform="scale(0.015625)"/>
       </defs>
       <use xlink:href="#DejaVuSans-44"/>
       <use xlink:href="#DejaVuSans-65" x="77.001953"/>
       <use xlink:href="#DejaVuSans-65" x="138.525391"/>
       <use xlink:href="#DejaVuSans-50" x="200.048828"/>
       <use xlink:href="#DejaVuSans-43" x="260.351562"/>
      </g>
     </g>
    </g>
    <g id="xtick_2">
     <g id="line2d_2">
      <g>
       <use xlink:href="#mf2eb1bd934" x="326.341818" y="307.584" style="stroke: #000000; stroke-width: 0.8"/>
      </g>
     </g>
     <g id="text_2">
      <!-- MPC -->
      <g transform="translate(315.521506 322.182437) scale(0.1 -0.1)">
       <defs>
        <path id="DejaVuSans-4d" d="M 628 4666 
L 1569 4666 
L 2759 1491 
L 3956 4666 
L 4897 4666 
L 4897 0 
L 4281 0 
L 4281 4097 
L 3078 897 
L 2444 897 
L 1241 4097 
L 1241 0 
L 628 0 
L 628 4666 
z
" transform="scale(0.015625)"/>
       </defs>
       <use xlink:href="#DejaVuSans-4d"/>
       <use xlink:href="#DejaVuSans-50" x="86.279297"/>
       <use xlink:href="#DejaVuSans-43" x="146.582031"/>
      </g>
     </g>
    </g>
   </g>
   <g id="matplotlib.axis_2">
    <g id="ytick_1">
     <g id="line2d_3">
      <defs>
       <path id="m72e07e1d07" d="M 0 0 
L -3.5 0 
" style="stroke: #000000; stroke-width: 0.8"/>
      </defs>
      <g>
       <use xlink:href="#m72e07e1d07" x="57.6" y="307.584" style="stroke: #000000; stroke-width: 0.8"/>
      </g>
     </g>
     <g id="text_3">
      <!-- 0.0 -->
      <g transform="translate(34.696875 311.383219) scale(0.1 -0.1)">
       <defs>
        <path id="DejaVuSans-30" d="M 2034 4250 
Q 1547 4250 1301 3770 
Q 1056 3291 1056 2328 
Q 1056 1369 1301 889 
Q 1547 409 2034 409 
Q 2525 409 2770 889 
Q 3016 1369 3016 2328 
Q 3016 3291 2770 3770 
Q 2525 4250 2034 4250 
z
M 2034 4750 
Q 2819 4750 3233 4129 
Q 3647 3509 3647 2328 
Q 3647 1150 3233 529 
Q 2819 -91 2034 -91 
Q 1250 -91 836 529 
Q 422 1150 422 2328 
Q 422 3509 836 4129 
Q 1250 4750 2034 4750 
z
" transform="scale(0.015625)"/>
        <path id="DejaVuSans-2e" d="M 684 794 
L 1344 794 
L 1344 0 
L 684 0 
L 684 794 
z
" transform="scale(0.015625)"/>
       </defs>
       <use xlink:href="#DejaVuSans-30"/>
       <use xlink:href="#DejaVuSans-2e" x="63.623047"/>
       <use xlink:href="#DejaVuSans-30" x="95.410156"/>
      </g>
     </g>
    </g>
    <g id="ytick_2">
     <g id="line2d_4">
      <g>
       <use xlink:href="#m72e07e1d07" x="57.6" y="261.716347" style="stroke: #000000; stroke-width: 0.8"/>
      </g>
     </g>
     <g id="text_4">
      <!-- 0.2 -->
      <g transform="translate(34.696875 265.515566) scale(0.1 -0.1)">
       <defs>
        <path id="DejaVuSans-32" d="M 1228 531 
L 3431 531 
L 3431 0 
L 469 0 
L 469 531 
Q 828 903 1448 1529 
Q 2069 2156 2228 2338 
Q 2531 2678 2651 2914 
Q 2772 3150 2772 3378 
Q 2772 3750 2511 3984 
Q 2250 4219 1831 4219 
Q 1534 4219 1204 4116 
Q 875 4013 500 3803 
L 500 4441 
Q 881 4594 1212 4672 
Q 1544 4750 1819 4750 
Q 2544 4750 2975 4387 
Q 3406 4025 3406 3419 
Q 3406 3131 3298 2873 
Q 3191 2616 2906 2266 
Q 2828 2175 2409 1742 
Q 1991 1309 1228 531 
z
" transform="scale(0.015625)"/>
       </defs>
       <use xlink:href="#DejaVuSans-30"/>
       <use xlink:href="#DejaVuSans-2e" x="63.623047"/>
       <use xlink:href="#DejaVuSans-32" x="95.410156"/>
      </g>
     </g>
    </g>
    <g id="ytick_3">
     <g id="line2d_5">
      <g>
       <use xlink:href="#m72e07e1d07" x="57.6" y="215.848695" style="stroke: #000000; stroke-width: 0.8"/>
      </g>
     </g>
     <g id="text_5">
      <!-- 0.4 -->
      <g transform="translate(34.696875 219.647914) scale(0.1 -0.1)">
       <defs>
        <path id="DejaVuSans-34" d="M 2419 4116 
L 825 1625 
L 2419 1625 
L 2419 4116 
z
M 2253 4666 
L 3047 4666 
L 3047 1625 
L 3713 1625 
L 3713 1100 
L 3047 1100 
L 3047 0 
L 2419 0 
L 2419 1100 
L 313 1100 
L 313 1709 
L 2253 4666 
z
" transform="scale(0.015625)"/>
       </defs>
       <use xlink:href="#DejaVuSans-30"/>
       <use xlink:href="#DejaVuSans-2e" x="63.623047"/>
       <use xlink:href="#DejaVuSans-34" x="95.410156"/>
      </g>
     </g>
    </g>
    <g id="ytick_4">
     <g id="line2d_6">
      <g>
       <use xlink:href="#m72e07e1d07" x="57.6" y="169.981042" style="stroke: #000000; stroke-width: 0.8"/>
      </g>
     </g>
     <g id="text_6">
      <!-- 0.6 -->
      <g transform="translate(34.696875 173.780261) scale(0.1 -0.1)">
       <defs>
        <path id="DejaVuSans-36" d="M 2113 2584 
Q 1688 2584 1439 2293 
Q 1191 2003 1191 1497 
Q 1191 994 1439 701 
Q 1688 409 2113 409 
Q 2538 409 2786 701 
Q 3034 994 3034 1497 
Q 3034 2003 2786 2293 
Q 2538 2584 2113 2584 
z
M 3366 4563 
L 3366 3988 
Q 3128 4100 2886 4159 
Q 2644 4219 2406 4219 
Q 1781 4219 1451 3797 
Q 1122 3375 1075 2522 
Q 1259 2794 1537 2939 
Q 1816 3084 2150 3084 
Q 2853 3084 3261 2657 
Q 3669 2231 3669 1497 
Q 3669 778 3244 343 
Q 2819 -91 2113 -91 
Q 1303 -91 875 529 
Q 447 1150 447 2328 
Q 447 3434 972 4092 
Q 1497 4750 2381 4750 
Q 2619 4750 2861 4703 
Q 3103 4656 3366 4563 
z
" transform="scale(0.015625)"/>
       </defs>
       <use xlink:href="#DejaVuSans-30"/>
       <use xlink:href="#DejaVuSans-2e" x="63.623047"/>
       <use xlink:href="#DejaVuSans-36" x="95.410156"/>
      </g>
     </g>
    </g>
    <g id="ytick_5">
     <g id="line2d_7">
      <g>
       <use xlink:href="#m72e07e1d07" x="57.6" y="124.11339" style="stroke: #000000; stroke-width: 0.8"/>
      </g>
     </g>
     <g id="text_7">
      <!-- 0.8 -->
      <g transform="translate(34.696875 127.912609) scale(0.1 -0.1)">
       <defs>
        <path id="DejaVuSans-38" d="M 2034 2216 
Q 1584 2216 1326 1975 
Q 1069 1734 1069 1313 
Q 1069 891 1326 650 
Q 1584 409 2034 409 
Q 2484 409 2743 651 
Q 3003 894 3003 1313 
Q 3003 1734 2745 1975 
Q 2488 2216 2034 2216 
z
M 1403 2484 
Q 997 2584 770 2862 
Q 544 3141 544 3541 
Q 544 4100 942 4425 
Q 1341 4750 2034 4750 
Q 2731 4750 3128 4425 
Q 3525 4100 3525 3541 
Q 3525 3141 3298 2862 
Q 3072 2584 2669 2484 
Q 3125 2378 3379 2068 
Q 3634 1759 3634 1313 
Q 3634 634 3220 271 
Q 2806 -91 2034 -91 
Q 1263 -91 848 271 
Q 434 634 434 1313 
Q 434 1759 690 2068 
Q 947 2378 1403 2484 
z
M 1172 3481 
Q 1172 3119 1398 2916 
Q 1625 2713 2034 2713 
Q 2441 2713 2670 2916 
Q 2900 3119 2900 3481 
Q 2900 3844 2670 4047 
Q 2441 4250 2034 4250 
Q 1625 4250 1398 4047 
Q 1172 3844 1172 3481 
z
" transform="scale(0.015625)"/>
       </defs>
       <use xlink:href="#DejaVuSans-30"/>
       <use xlink:href="#DejaVuSans-2e" x="63.623047"/>
       <use xlink:href="#DejaVuSans-38" x="95.410156"/>
      </g>
     </g>
    </g>
    <g id="ytick_6">
     <g id="line2d_8">
      <g>
       <use xlink:href="#m72e07e1d07" x="57.6" y="78.245737" style="stroke: #000000; stroke-width: 0.8"/>
      </g>
     </g>
     <g id="text_8">
      <!-- 1.0 -->
      <g transform="translate(34.696875 82.044956) scale(0.1 -0.1)">
       <defs>
        <path id="DejaVuSans-31" d="M 794 531 
L 1825 531 
L 1825 4091 
L 703 3866 
L 703 4441 
L 1819 4666 
L 2450 4666 
L 2450 531 
L 3481 531 
L 3481 0 
L 794 0 
L 794 531 
z
" transform="scale(0.015625)"/>
       </defs>
       <use xlink:href="#DejaVuSans-31"/>
       <use xlink:href="#DejaVuSans-2e" x="63.623047"/>
       <use xlink:href="#DejaVuSans-30" x="95.410156"/>
      </g>
     </g>
    </g>
    <g id="text_9">
     <!-- Steady-State Error -->
     <g transform="translate(28.617187 220.662375) rotate(-90) scale(0.1 -0.1)">
      <defs>
       <path id="DejaVuSans-53" d="M 3425 4513 
L 3425 3897 
Q 3066 4069 2747 4153 
Q 2428 4238 2131 4238 
Q 1616 4238 1336 4038 
Q 1056 3838 1056 3469 
Q 1056 3159 1242 3001 
Q 1428 2844 1947 2747 
L 2328 2669 
Q 3034 2534 3370 2195 
Q 3706 1856 3706 1288 
Q 3706 609 3251 259 
Q 2797 -91 1919 -91 
Q 1588 -91 1214 -16 
Q 841 59 441 206 
L 441 856 
Q 825 641 1194 531 
Q 1563 422 1919 422 
Q 2459 422 2753 634 
Q 3047 847 3047 1241 
Q 3047 1584 2836 1778 
Q 2625 1972 2144 2069 
L 1759 2144 
Q 1053 2284 737 2584 
Q 422 2884 422 3419 
Q 422 4038 858 4394 
Q 1294 4750 2059 4750 
Q 2388 4750 2728 4690 
Q 3069 4631 3425 4513 
z
" transform="scale(0.015625)"/>
       <path id="DejaVuSans-74" d="M 1172 4494 
L 1172 3500 
L 2356 3500 
L 2356 3053 
L 1172 3053 
L 1172 1153 
Q 1172 725 1289 603 
Q 1406 481 1766 481 
L 2356 481 
L 2356 0 
L 1766 0 
Q 1100 0 847 248 
Q 594 497 594 1153 
L 594 3053 
L 172 3053 
L 172 3500 
L 594 3500 
L 594 4494 
L 1172 4494 
z
" transform="scale(0.015625)"/>
       <path id="DejaVuSans-61" d="M 2194 1759 
Q 1497 1759 1228 1600 
Q 959 1441 959 1056 
Q 959 750 1161 570 
Q 1363 391 1709 391 
Q 2188 391 2477 730 
Q 2766 1069 2766 1631 
L 2766 1759 
L 2194 1759 
z
M 3341 1997 
L 3341 0 
L 2766 0 
L 2766 531 
Q 2569 213 2275 61 
Q 1981 -91 1556 -91 
Q 1019 -91 701 211 
Q 384 513 384 1019 
Q 384 1609 779 1909 
Q 1175 2209 1959 2209 
L 2766 2209 
L 2766 2266 
Q 2766 2663 2505 2880 
Q 2244 3097 1772 3097 
Q 1472 3097 1187 3025 
Q 903 2953 641 2809 
L 641 3341 
Q 956 3463 1253 3523 
Q 1550 3584 1831 3584 
Q 2591 3584 2966 3190 
Q 3341 2797 3341 1997 
z
" transform="scale(0.015625)"/>
       <path id="DejaVuSans-64" d="M 2906 2969 
L 2906 4863 
L 3481 4863 
L 3481 0 
L 2906 0 
L 2906 525 
Q 2725 213 2448 61 
Q 2172 -91 1784 -91 
Q 1150 -91 751 415 
Q 353 922 353 1747 
Q 353 2572 751 3078 
Q 1150 3584 1784 3584 
Q 2172 3584 2448 3432 
Q 2725 3281 2906 2969 
z
M 947 1747 
Q 947 1113 1208 752 
Q 1469 391 1925 391 
Q 2381 391 2643 752 
Q 2906 1113 2906 1747 
Q 2906 2381 2643 2742 
Q 2381 3103 1925 3103 
Q 1469 3103 1208 2742 
Q 947 2381 947 1747 
z
" transform="scale(0.015625)"/>
       <path id="DejaVuSans-79" d="M 2059 -325 
Q 1816 -950 1584 -1140 
Q 1353 -1331 966 -1331 
L 506 -1331 
L 506 -850 
L 844 -850 
Q 1081 -850 1212 -737 
Q 1344 -625 1503 -206 
L 1606 56 
L 191 3500 
L 800 3500 
L 1894 763 
L 2988 3500 
L 3597 3500 
L 2059 -325 
z
" transform="scale(0.015625)"/>
       <path id="DejaVuSans-2d" d="M 313 2009 
L 1997 2009 
L 1997 1497 
L 313 1497 
L 313 2009 
z
" transform="scale(0.015625)"/>
       <path id="DejaVuSans-20" transform="scale(0.015625)"/>
       <path id="DejaVuSans-45" d="M 628 4666 
L 3578 4666 
L 3578 4134 
L 1259 4134 
L 1259 2753 
L 3481 2753 
L 3481 2222 
L 1259 2222 
L 1259 531 
L 3634 531 
L 3634 0 
L 628 0 
L 628 4666 
z
" transform="scale(0.015625)"/>
       <path id="DejaVuSans-72" d="M 2631 2963 
Q 2534 3019 2420 3045 
Q 2306 3072 2169 3072 
Q 1681 3072 1420 2755 
Q 1159 2438 1159 1844 
L 1159 0 
L 581 0 
L 581 3500 
L 1159 3500 
L 1159 2956 
Q 1341 3275 1631 3429 
Q 1922 3584 2338 3584 
Q 2397 3584 2469 3576 
Q 2541 3569 2628 3553 
L 2631 2963 
z
" transform="scale(0.015625)"/>
       <path id="DejaVuSans-6f" d="M 1959 3097 
Q 1497 3097 1228 2736 
Q 959 2375 959 1747 
Q 959 1119 1226 758 
Q 1494 397 1959 397 
Q 2419 397 2687 759 
Q 2956 1122 2956 1747 
Q 2956 2369 2687 2733 
Q 2419 3097 1959 3097 
z
M 1959 3584 
Q 2709 3584 3137 3096 
Q 3566 2609 3566 1747 
Q 3566 888 3137 398 
Q 2709 -91 1959 -91 
Q 1206 -91 779 398 
Q 353 888 353 1747 
Q 353 2609 779 3096 
Q 1206 3584 1959 3584 
z
" transform="scale(0.015625)"/>
      </defs>
      <use xlink:href="#DejaVuSans-53"/>
      <use xlink:href="#DejaVuSans-74" x="63.476562"/>
      <use xlink:href="#DejaVuSans-65" x="102.685547"/>
      <use xlink:href="#DejaVuSans-61" x="164.208984"/>
      <use xlink:href="#DejaVuSans-64" x="225.488281"/>
      <use xlink:href="#DejaVuSans-79" x="288.964844"/>
      <use xlink:href="#DejaVuSans-2d" x="346.394531"/>
      <use xlink:href="#DejaVuSans-53" x="382.478516"/>
      <use xlink:href="#DejaVuSans-74" x="445.955078"/>
      <use xlink:href="#DejaVuSans-61" x="485.164062"/>
      <use xlink:href="#DejaVuSans-74" x="546.443359"/>
      <use xlink:href="#DejaVuSans-65" x="585.652344"/>
      <use xlink:href="#DejaVuSans-20" x="647.175781"/>
      <use xlink:href="#DejaVuSans-45" x="678.962891"/>
      <use xlink:href="#DejaVuSans-72" x="742.146484"/>
      <use xlink:href="#DejaVuSans-72" x="781.509766"/>
      <use xlink:href="#DejaVuSans-6f" x="820.373047"/>
      <use xlink:href="#DejaVuSans-72" x="881.554688"/>
     </g>
    </g>
   </g>
   <g id="patch_5">
    <path d="M 57.6 307.584 
L 57.6 41.472 
" style="fill: none; stroke: #000000; stroke-width: 0.8; stroke-linejoin: miter; stroke-linecap: square"/>
   </g>
   <g id="patch_6">
    <path d="M 414.72 307.584 
L 414.72 41.472 
" style="fill: none; stroke: #000000; stroke-width: 0.8; stroke-linejoin: miter; stroke-linecap: square"/>
   </g>
   <g id="patch_7">
    <path d="M 57.6 307.584 
L 414.72 307.584 
" style="fill: none; stroke: #000000; stroke-width: 0.8; stroke-linejoin: miter; stroke-linecap: square"/>
   </g>
   <g id="patch_8">
    <path d="M 57.6 41.472 
L 414.72 41.472 
" style="fill: none; stroke: #000000; stroke-width: 0.8; stroke-linejoin: miter; stroke-linecap: square"/>
   </g>
   <g id="text_10">
    <!-- Comparison of Steady-State Errors: Median with Spread -->
    <g transform="translate(68.73 35.472) scale(0.12 -0.12)">
     <defs>
      <path id="DejaVuSans-6d" d="M 3328 2828 
Q 3544 3216 3844 3400 
Q 4144 3584 4550 3584 
Q 5097 3584 5394 3201 
Q 5691 2819 5691 2113 
L 5691 0 
L 5113 0 
L 5113 2094 
Q 5113 2597 4934 2840 
Q 4756 3084 4391 3084 
Q 3944 3084 3684 2787 
Q 3425 2491 3425 1978 
L 3425 0 
L 2847 0 
L 2847 2094 
Q 2847 2600 2669 2842 
Q 2491 3084 2119 3084 
Q 1678 3084 1418 2786 
Q 1159 2488 1159 1978 
L 1159 0 
L 581 0 
L 581 3500 
L 1159 3500 
L 1159 2956 
Q 1356 3278 1631 3431 
Q 1906 3584 2284 3584 
Q 2666 3584 2933 3390 
Q 3200 3197 3328 2828 
z
" transform="scale(0.015625)"/>
      <path id="DejaVuSans-70" d="M 1159 525 
L 1159 -1331 
L 581 -1331 
L 581 3500 
L 1159 3500 
L 1159 2969 
Q 1341 3281 1617 3432 
Q 1894 3584 2278 3584 
Q 2916 3584 3314 3078 
Q 3713 2572 3713 1747 
Q 3713 922 3314 415 
Q 2916 -91 2278 -91 
Q 1894 -91 1617 61 
Q 1341 213 1159 525 
z
M 3116 1747 
Q 3116 2381 2855 2742 
Q 2594 3103 2138 3103 
Q 1681 3103 1420 2742 
Q 1159 2381 1159 1747 
Q 1159 1113 1420 752 
Q 1681 391 2138 391 
Q 2594 391 2855 752 
Q 3116 1113 3116 1747 
z
" transform="scale(0.015625)"/>
      <path id="DejaVuSans-69" d="M 603 3500 
L 1178 3500 
L 1178 0 
L 603 0 
L 603 3500 
z
M 603 4863 
L 1178 4863 
L 1178 4134 
L 603 4134 
L 603 4863 
z
" transform="scale(0.015625)"/>
      <path id="DejaVuSans-73" d="M 2834 3397 
L 2834 2853 
Q 2591 2978 2328 3040 
Q 2066 3103 1784 3103 
Q 1356 3103 1142 2972 
Q 928 2841 928 2578 
Q 928 2378 1081 2264 
Q 1234 2150 1697 2047 
L 1894 2003 
Q 2506 1872 2764 1633 
Q 3022 1394 3022 966 
Q 3022 478 2636 193 
Q 2250 -91 1575 -91 
Q 1294 -91 989 -36 
Q 684 19 347 128 
L 347 722 
Q 666 556 975 473 
Q 1284 391 1588 391 
Q 1994 391 2212 530 
Q 2431 669 2431 922 
Q 2431 1156 2273 1281 
Q 2116 1406 1581 1522 
L 1381 1569 
Q 847 1681 609 1914 
Q 372 2147 372 2553 
Q 372 3047 722 3315 
Q 1072 3584 1716 3584 
Q 2034 3584 2315 3537 
Q 2597 3491 2834 3397 
z
" transform="scale(0.015625)"/>
      <path id="DejaVuSans-6e" d="M 3513 2113 
L 3513 0 
L 2938 0 
L 2938 2094 
Q 2938 2591 2744 2837 
Q 2550 3084 2163 3084 
Q 1697 3084 1428 2787 
Q 1159 2491 1159 1978 
L 1159 0 
L 581 0 
L 581 3500 
L 1159 3500 
L 1159 2956 
Q 1366 3272 1645 3428 
Q 1925 3584 2291 3584 
Q 2894 3584 3203 3211 
Q 3513 2838 3513 2113 
z
" transform="scale(0.015625)"/>
      <path id="DejaVuSans-66" d="M 2375 4863 
L 2375 4384 
L 1825 4384 
Q 1516 4384 1395 4259 
Q 1275 4134 1275 3809 
L 1275 3500 
L 2222 3500 
L 2222 3053 
L 1275 3053 
L 1275 0 
L 697 0 
L 697 3053 
L 147 3053 
L 147 3500 
L 697 3500 
L 697 3744 
Q 697 4328 969 4595 
Q 1241 4863 1831 4863 
L 2375 4863 
z
" transform="scale(0.015625)"/>
      <path id="DejaVuSans-3a" d="M 750 794 
L 1409 794 
L 1409 0 
L 750 0 
L 750 794 
z
M 750 3309 
L 1409 3309 
L 1409 2516 
L 750 2516 
L 750 3309 
z
" transform="scale(0.015625)"/>
      <path id="DejaVuSans-77" d="M 269 3500 
L 844 3500 
L 1563 769 
L 2278 3500 
L 2956 3500 
L 3675 769 
L 4391 3500 
L 4966 3500 
L 4050 0 
L 3372 0 
L 2619 2869 
L 1863 0 
L 1184 0 
L 269 3500 
z
" transform="scale(0.015625)"/>
      <path id="DejaVuSans-68" d="M 3513 2113 
L 3513 0 
L 2938 0 
L 2938 2094 
Q 2938 2591 2744 2837 
Q 2550 3084 2163 3084 
Q 1697 3084 1428 2787 
Q 1159 2491 1159 1978 
L 1159 0 
L 581 0 
L 581 4863 
L 1159 4863 
L 1159 2956 
Q 1366 3272 1645 3428 
Q 1925 3584 2291 3584 
Q 2894 3584 3203 3211 
Q 3513 2838 3513 2113 
z
" transform="scale(0.015625)"/>
     </defs>
     <use xlink:href="#DejaVuSans-43"/>
     <use xlink:href="#DejaVuSans-6f" x="69.824219"/>
     <use xlink:href="#DejaVuSans-6d" x="131.005859"/>
     <use xlink:href="#DejaVuSans-70" x="228.417969"/>
     <use xlink:href="#DejaVuSans-61" x="291.894531"/>
     <use xlink:href="#DejaVuSans-72" x="353.173828"/>
     <use xlink:href="#DejaVuSans-69" x="394.287109"/>
     <use xlink:href="#DejaVuSans-73" x="422.070312"/>
     <use xlink:href="#DejaVuSans-6f" x="474.169922"/>
     <use xlink:href="#DejaVuSans-6e" x="535.351562"/>
     <use xlink:href="#DejaVuSans-20" x="598.730469"/>
     <use xlink:href="#DejaVuSans-6f" x="630.517578"/>
     <use xlink:href="#DejaVuSans-66" x="691.699219"/>
     <use xlink:href="#DejaVuSans-20" x="726.904297"/>
     <use xlink:href="#DejaVuSans-53" x="758.691406"/>
     <use xlink:href="#DejaVuSans-74" x="822.167969"/>
     <use xlink:href="#DejaVuSans-65" x="861.376953"/>
     <use xlink:href="#DejaVuSans-61" x="922.900391"/>
     <use xlink:href="#DejaVuSans-64" x="984.179688"/>
     <use xlink:href="#DejaVuSans-79" x="1047.65625"/>
     <use xlink:href="#DejaVuSans-2d" x="1105.085938"/>
     <use xlink:href="#DejaVuSans-53" x="1141.169922"/>
     <use xlink:href="#DejaVuSans-74" x="1204.646484"/>
     <use xlink:href="#DejaVuSans-61" x="1243.855469"/>
     <use xlink:href="#DejaVuSans-74" x="1305.134766"/>
     <use xlink:href="#DejaVuSans-65" x="1344.34375"/>
     <use xlink:href="#DejaVuSans-20" x="1405.867188"/>
     <use xlink:href="#DejaVuSans-45" x="1437.654297"/>
     <use xlink:href="#DejaVuSans-72" x="1500.837891"/>
     <use xlink:href="#DejaVuSans-72" x="1540.201172"/>
     <use xlink:href="#DejaVuSans-6f" x="1579.064453"/>
     <use xlink:href="#DejaVuSans-72" x="1640.246094"/>
     <use xlink:href="#DejaVuSans-73" x="1681.359375"/>
     <use xlink:href="#DejaVuSans-3a" x="1733.458984"/>
     <use xlink:href="#DejaVuSans-20" x="1767.150391"/>
     <use xlink:href="#DejaVuSans-4d" x="1798.9375"/>
     <use xlink:href="#DejaVuSans-65" x="1885.216797"/>
     <use xlink:href="#DejaVuSans-64" x="1946.740234"/>
     <use xlink:href="#DejaVuSans-69" x="2010.216797"/>
     <use xlink:href="#DejaVuSans-61" x="2038"/>
     <use xlink:href="#DejaVuSans-6e" x="2099.279297"/>
     <use xlink:href="#DejaVuSans-20" x="2162.658203"/>
     <use xlink:href="#DejaVuSans-77" x="2194.445312"/>
     <use xlink:href="#DejaVuSans-69" x="2276.232422"/>
     <use xlink:href="#DejaVuSans-74" x="2304.015625"/>
     <use xlink:href="#DejaVuSans-68" x="2343.224609"/>
     <use xlink:href="#DejaVuSans-20" x="2406.603516"/>
     <use xlink:href="#DejaVuSans-53" x="2438.390625"/>
     <use xlink:href="#DejaVuSans-70" x="2501.867188"/>
     <use xlink:href="#DejaVuSans-72" x="2565.34375"/>
     <use xlink:href="#DejaVuSans-65" x="2604.207031"/>
     <use xlink:href="#DejaVuSans-61" x="2665.730469"/>
     <use xlink:href="#DejaVuSans-64" x="2727.009766"/>
    </g>
   </g>
   <g id="PathCollection_1">
    <defs>
     <path id="mddf00c9328" d="M 0 3 
C 0.795609 3 1.55874 2.683901 2.12132 2.12132 
C 2.683901 1.55874 3 0.795609 3 0 
C 3 -0.795609 2.683901 -1.55874 2.12132 -2.12132 
C 1.55874 -2.683901 0.795609 -3 0 -3 
C -0.795609 -3 -1.55874 -2.683901 -2.12132 -2.12132 
C -2.683901 -1.55874 -3 -0.795609 -3 0 
C -3 0.795609 -2.683901 1.55874 -2.12132 2.12132 
C -1.55874 2.683901 -0.795609 3 0 3 
z
" style="stroke: #000000"/>
    </defs>
    <g clip-path="url(#p4e7b39f333)">
     <use xlink:href="#mddf00c9328" x="152.381781" y="172.957168" style="stroke: #000000"/>
     <use xlink:href="#mddf00c9328" x="150.678547" y="54.36465" style="stroke: #000000"/>
     <use xlink:href="#mddf00c9328" x="148.352273" y="112.708791" style="stroke: #000000"/>
     <use xlink:href="#mddf00c9328" x="138.014025" y="229.110864" style="stroke: #000000"/>
     <use xlink:href="#mddf00c9328" x="141.746629" y="180.336117" style="stroke: #000000"/>
     <use xlink:href="#mddf00c9328" x="141.847523" y="217.383425" style="stroke: #000000"/>
     <use xlink:href="#mddf00c9328" x="138.453318" y="154.015759" style="stroke: #000000"/>
     <use xlink:href="#mddf00c9328" x="153.179839" y="129.446955" style="stroke: #000000"/>
     <use xlink:href="#mddf00c9328" x="143.441562" y="126.453415" style="stroke: #000000"/>
     <use xlink:href="#mddf00c9328" x="142.052907" y="242.281141" style="stroke: #000000"/>
     <use xlink:href="#mddf00c9328" x="138.641108" y="134.120111" style="stroke: #000000"/>
     <use xlink:href="#mddf00c9328" x="146.050323" y="145.787026" style="stroke: #000000"/>
     <use xlink:href="#mddf00c9328" x="141.788828" y="244.289807" style="stroke: #000000"/>
     <use xlink:href="#mddf00c9328" x="139.737299" y="190.845371" style="stroke: #000000"/>
     <use xlink:href="#mddf00c9328" x="145.435332" y="194.295007" style="stroke: #000000"/>
     <use xlink:href="#mddf00c9328" x="137.676774" y="154.204217" style="stroke: #000000"/>
     <use xlink:href="#mddf00c9328" x="151.974231" y="88.95315" style="stroke: #000000"/>
     <use xlink:href="#mddf00c9328" x="139.320019" y="218.710687" style="stroke: #000000"/>
     <use xlink:href="#mddf00c9328" x="140.355772" y="232.487283" style="stroke: #000000"/>
     <use xlink:href="#mddf00c9328" x="138.759236" y="200.873827" style="stroke: #000000"/>
     <use xlink:href="#mddf00c9328" x="144.883989" y="181.918157" style="stroke: #000000"/>
     <use xlink:href="#mddf00c9328" x="145.885208" y="94.349446" style="stroke: #000000"/>
     <use xlink:href="#mddf00c9328" x="140.657287" y="224.766094" style="stroke: #000000"/>
     <use xlink:href="#mddf00c9328" x="144.404011" y="163.691175" style="stroke: #000000"/>
     <use xlink:href="#mddf00c9328" x="151.364499" y="141.879224" style="stroke: #000000"/>
     <use xlink:href="#mddf00c9328" x="138.780661" y="155.043212" style="stroke: #000000"/>
     <use xlink:href="#mddf00c9328" x="141.921959" y="167.562543" style="stroke: #000000"/>
     <use xlink:href="#mddf00c9328" x="149.978347" y="160.664647" style="stroke: #000000"/>
     <use xlink:href="#mddf00c9328" x="146.062472" y="166.211662" style="stroke: #000000"/>
     <use xlink:href="#mddf00c9328" x="146.983736" y="135.018001" style="stroke: #000000"/>
     <use xlink:href="#mddf00c9328" x="148.666917" y="200.607275" style="stroke: #000000"/>
     <use xlink:href="#mddf00c9328" x="141.407514" y="157.969363" style="stroke: #000000"/>
     <use xlink:href="#mddf00c9328" x="151.32301" y="161.834079" style="stroke: #000000"/>
     <use xlink:href="#mddf00c9328" x="154.267978" y="211.616362" style="stroke: #000000"/>
     <use xlink:href="#mddf00c9328" x="142.285504" y="163.349948" style="stroke: #000000"/>
     <use xlink:href="#mddf00c9328" x="145.656828" y="193.455032" style="stroke: #000000"/>
     <use xlink:href="#mddf00c9328" x="144.47281" y="188.8697" style="stroke: #000000"/>
     <use xlink:href="#mddf00c9328" x="139.473781" y="183.508105" style="stroke: #000000"/>
     <use xlink:href="#mddf00c9328" x="152.284041" y="179.427298" style="stroke: #000000"/>
     <use xlink:href="#mddf00c9328" x="148.020184" y="245.558331" style="stroke: #000000"/>
     <use xlink:href="#mddf00c9328" x="140.736312" y="203.384421" style="stroke: #000000"/>
     <use xlink:href="#mddf00c9328" x="148.221286" y="158.914978" style="stroke: #000000"/>
     <use xlink:href="#mddf00c9328" x="137.182967" y="142.046234" style="stroke: #000000"/>
     <use xlink:href="#mddf00c9328" x="148.739739" y="174.642941" style="stroke: #000000"/>
     <use xlink:href="#mddf00c9328" x="151.453255" y="161.310965" style="stroke: #000000"/>
     <use xlink:href="#mddf00c9328" x="148.859968" y="221.690277" style="stroke: #000000"/>
     <use xlink:href="#mddf00c9328" x="154.562009" y="143.156739" style="stroke: #000000"/>
     <use xlink:href="#mddf00c9328" x="143.544834" y="176.019302" style="stroke: #000000"/>
     <use xlink:href="#mddf00c9328" x="152.569921" y="204.909806" style="stroke: #000000"/>
     <use xlink:href="#mddf00c9328" x="146.90722" y="229.756785" style="stroke: #000000"/>
     <use xlink:href="#mddf00c9328" x="145.93846" y="165.557092" style="stroke: #000000"/>
     <use xlink:href="#mddf00c9328" x="149.093423" y="168.938619" style="stroke: #000000"/>
     <use xlink:href="#mddf00c9328" x="151.490482" y="168.104402" style="stroke: #000000"/>
     <use xlink:href="#mddf00c9328" x="148.169875" y="225.37706" style="stroke: #000000"/>
     <use xlink:href="#mddf00c9328" x="148.709292" y="61.895962" style="stroke: #000000"/>
     <use xlink:href="#mddf00c9328" x="143.121144" y="173.249791" style="stroke: #000000"/>
     <use xlink:href="#mddf00c9328" x="144.013012" y="166.666909" style="stroke: #000000"/>
     <use xlink:href="#mddf00c9328" x="150.758173" y="213.200795" style="stroke: #000000"/>
     <use xlink:href="#mddf00c9328" x="145.034197" y="223.047006" style="stroke: #000000"/>
     <use xlink:href="#mddf00c9328" x="139.285745" y="165.912939" style="stroke: #000000"/>
     <use xlink:href="#mddf00c9328" x="150.163541" y="164.277637" style="stroke: #000000"/>
     <use xlink:href="#mddf00c9328" x="138.925259" y="119.472597" style="stroke: #000000"/>
     <use xlink:href="#mddf00c9328" x="148.517926" y="111.19238" style="stroke: #000000"/>
     <use xlink:href="#mddf00c9328" x="150.810797" y="108.553513" style="stroke: #000000"/>
     <use xlink:href="#mddf00c9328" x="147.250377" y="167.174173" style="stroke: #000000"/>
     <use xlink:href="#mddf00c9328" x="148.151889" y="150.78724" style="stroke: #000000"/>
     <use xlink:href="#mddf00c9328" x="137.306993" y="106.123611" style="stroke: #000000"/>
     <use xlink:href="#mddf00c9328" x="144.290819" y="209.772327" style="stroke: #000000"/>
     <use xlink:href="#mddf00c9328" x="146.417567" y="197.994695" style="stroke: #000000"/>
     <use xlink:href="#mddf00c9328" x="143.979575" y="180.882812" style="stroke: #000000"/>
     <use xlink:href="#mddf00c9328" x="144.661028" y="119.937683" style="stroke: #000000"/>
     <use xlink:href="#mddf00c9328" x="151.358367" y="241.290075" style="stroke: #000000"/>
     <use xlink:href="#mddf00c9328" x="152.41405" y="110.577203" style="stroke: #000000"/>
     <use xlink:href="#mddf00c9328" x="141.505011" y="98.532779" style="stroke: #000000"/>
     <use xlink:href="#mddf00c9328" x="142.917117" y="106.366235" style="stroke: #000000"/>
     <use xlink:href="#mddf00c9328" x="150.512795" y="219.562478" style="stroke: #000000"/>
     <use xlink:href="#mddf00c9328" x="141.298855" y="227.799065" style="stroke: #000000"/>
     <use xlink:href="#mddf00c9328" x="140.875823" y="196.526019" style="stroke: #000000"/>
     <use xlink:href="#mddf00c9328" x="141.37373" y="76.084034" style="stroke: #000000"/>
     <use xlink:href="#mddf00c9328" x="143.108337" y="256.331829" style="stroke: #000000"/>
     <use xlink:href="#mddf00c9328" x="151.397396" y="171.581412" style="stroke: #000000"/>
     <use xlink:href="#mddf00c9328" x="146.374044" y="122.526996" style="stroke: #000000"/>
     <use xlink:href="#mddf00c9328" x="143.787369" y="238.762172" style="stroke: #000000"/>
     <use xlink:href="#mddf00c9328" x="143.378306" y="142.046293" style="stroke: #000000"/>
     <use xlink:href="#mddf00c9328" x="141.706017" y="153.53217" style="stroke: #000000"/>
     <use xlink:href="#mddf00c9328" x="152.737161" y="183.29937" style="stroke: #000000"/>
     <use xlink:href="#mddf00c9328" x="142.556302" y="179.401899" style="stroke: #000000"/>
     <use xlink:href="#mddf00c9328" x="146.225625" y="245.153048" style="stroke: #000000"/>
     <use xlink:href="#mddf00c9328" x="137.663039" y="215.609529" style="stroke: #000000"/>
     <use xlink:href="#mddf00c9328" x="141.797312" y="203.58711" style="stroke: #000000"/>
     <use xlink:href="#mddf00c9328" x="141.35851" y="148.599801" style="stroke: #000000"/>
     <use xlink:href="#mddf00c9328" x="139.66192" y="175.464561" style="stroke: #000000"/>
     <use xlink:href="#mddf00c9328" x="149.059336" y="117.85265" style="stroke: #000000"/>
     <use xlink:href="#mddf00c9328" x="153.566647" y="215.582726" style="stroke: #000000"/>
     <use xlink:href="#mddf00c9328" x="144.016588" y="183.584224" style="stroke: #000000"/>
     <use xlink:href="#mddf00c9328" x="147.192367" y="54.144" style="stroke: #000000"/>
     <use xlink:href="#mddf00c9328" x="151.997962" y="174.690369" style="stroke: #000000"/>
     <use xlink:href="#mddf00c9328" x="145.328707" y="174.213031" style="stroke: #000000"/>
     <use xlink:href="#mddf00c9328" x="138.492011" y="203.693321" style="stroke: #000000"/>
     <use xlink:href="#mddf00c9328" x="148.008379" y="210.536199" style="stroke: #000000"/>
    </g>
   </g>
   <g id="PathCollection_2">
    <g clip-path="url(#p4e7b39f333)">
     <use xlink:href="#mddf00c9328" x="317.695462" y="175.7579" style="stroke: #000000"/>
     <use xlink:href="#mddf00c9328" x="327.66024" y="232.06351" style="stroke: #000000"/>
     <use xlink:href="#mddf00c9328" x="327.977348" y="147.231174" style="stroke: #000000"/>
     <use xlink:href="#mddf00c9328" x="324.461189" y="284.428163" style="stroke: #000000"/>
     <use xlink:href="#mddf00c9328" x="325.329507" y="187.052712" style="stroke: #000000"/>
     <use xlink:href="#mddf00c9328" x="323.056124" y="228.183446" style="stroke: #000000"/>
     <use xlink:href="#mddf00c9328" x="318.840566" y="173.362763" style="stroke: #000000"/>
     <use xlink:href="#mddf00c9328" x="322.659636" y="165.690956" style="stroke: #000000"/>
     <use xlink:href="#mddf00c9328" x="327.592968" y="155.640955" style="stroke: #000000"/>
     <use xlink:href="#mddf00c9328" x="327.729069" y="260.744" style="stroke: #000000"/>
     <use xlink:href="#mddf00c9328" x="333.310097" y="139.480156" style="stroke: #000000"/>
     <use xlink:href="#mddf00c9328" x="326.784511" y="170.960989" style="stroke: #000000"/>
     <use xlink:href="#mddf00c9328" x="317.741066" y="254.484763" style="stroke: #000000"/>
     <use xlink:href="#mddf00c9328" x="324.565746" y="231.367511" style="stroke: #000000"/>
     <use xlink:href="#mddf00c9328" x="335.084727" y="240.493277" style="stroke: #000000"/>
     <use xlink:href="#mddf00c9328" x="319.590026" y="166.048257" style="stroke: #000000"/>
     <use xlink:href="#mddf00c9328" x="330.469899" y="93.741883" style="stroke: #000000"/>
     <use xlink:href="#mddf00c9328" x="320.209133" y="239.033763" style="stroke: #000000"/>
     <use xlink:href="#mddf00c9328" x="323.391278" y="244.910489" style="stroke: #000000"/>
     <use xlink:href="#mddf00c9328" x="322.717902" y="202.612048" style="stroke: #000000"/>
     <use xlink:href="#mddf00c9328" x="321.586809" y="189.705952" style="stroke: #000000"/>
     <use xlink:href="#mddf00c9328" x="332.55128" y="94.711225" style="stroke: #000000"/>
     <use xlink:href="#mddf00c9328" x="334.365407" y="224.925913" style="stroke: #000000"/>
     <use xlink:href="#mddf00c9328" x="328.756227" y="242.697594" style="stroke: #000000"/>
     <use xlink:href="#mddf00c9328" x="318.089032" y="187.739322" style="stroke: #000000"/>
     <use xlink:href="#mddf00c9328" x="323.506632" y="196.95819" style="stroke: #000000"/>
     <use xlink:href="#mddf00c9328" x="333.308668" y="177.391234" style="stroke: #000000"/>
     <use xlink:href="#mddf00c9328" x="322.599215" y="163.185435" style="stroke: #000000"/>
     <use xlink:href="#mddf00c9328" x="333.272794" y="190.410601" style="stroke: #000000"/>
     <use xlink:href="#mddf00c9328" x="323.320631" y="165.253284" style="stroke: #000000"/>
     <use xlink:href="#mddf00c9328" x="324.774212" y="203.328408" style="stroke: #000000"/>
     <use xlink:href="#mddf00c9328" x="327.840741" y="171.816858" style="stroke: #000000"/>
     <use xlink:href="#mddf00c9328" x="322.148" y="225.16641" style="stroke: #000000"/>
     <use xlink:href="#mddf00c9328" x="327.542957" y="238.499242" style="stroke: #000000"/>
     <use xlink:href="#mddf00c9328" x="318.988179" y="185.864964" style="stroke: #000000"/>
     <use xlink:href="#mddf00c9328" x="319.726625" y="195.133599" style="stroke: #000000"/>
     <use xlink:href="#mddf00c9328" x="325.863482" y="193.141365" style="stroke: #000000"/>
     <use xlink:href="#mddf00c9328" x="325.278246" y="210.942081" style="stroke: #000000"/>
     <use xlink:href="#mddf00c9328" x="332.913897" y="180.609879" style="stroke: #000000"/>
     <use xlink:href="#mddf00c9328" x="331.704536" y="247.532232" style="stroke: #000000"/>
     <use xlink:href="#mddf00c9328" x="326.463773" y="206.239604" style="stroke: #000000"/>
     <use xlink:href="#mddf00c9328" x="334.451398" y="205.712236" style="stroke: #000000"/>
     <use xlink:href="#mddf00c9328" x="330.558166" y="156.476606" style="stroke: #000000"/>
     <use xlink:href="#mddf00c9328" x="331.194109" y="188.536325" style="stroke: #000000"/>
     <use xlink:href="#mddf00c9328" x="335.104391" y="161.86083" style="stroke: #000000"/>
     <use xlink:href="#mddf00c9328" x="320.202293" y="222.728966" style="stroke: #000000"/>
     <use xlink:href="#mddf00c9328" x="329.405939" y="148.586754" style="stroke: #000000"/>
     <use xlink:href="#mddf00c9328" x="320.081009" y="181.340317" style="stroke: #000000"/>
     <use xlink:href="#mddf00c9328" x="331.412902" y="226.719522" style="stroke: #000000"/>
     <use xlink:href="#mddf00c9328" x="319.407117" y="238.634695" style="stroke: #000000"/>
     <use xlink:href="#mddf00c9328" x="321.545812" y="166.24998" style="stroke: #000000"/>
     <use xlink:href="#mddf00c9328" x="328.966639" y="236.159811" style="stroke: #000000"/>
     <use xlink:href="#mddf00c9328" x="330.257816" y="187.738827" style="stroke: #000000"/>
     <use xlink:href="#mddf00c9328" x="319.012146" y="227.434007" style="stroke: #000000"/>
     <use xlink:href="#mddf00c9328" x="330.29425" y="169.61543" style="stroke: #000000"/>
     <use xlink:href="#mddf00c9328" x="324.359945" y="182.627291" style="stroke: #000000"/>
     <use xlink:href="#mddf00c9328" x="318.392998" y="204.864377" style="stroke: #000000"/>
     <use xlink:href="#mddf00c9328" x="330.095434" y="236.029809" style="stroke: #000000"/>
     <use xlink:href="#mddf00c9328" x="327.271588" y="223.510061" style="stroke: #000000"/>
     <use xlink:href="#mddf00c9328" x="329.446007" y="257.988831" style="stroke: #000000"/>
     <use xlink:href="#mddf00c9328" x="331.630264" y="175.472706" style="stroke: #000000"/>
     <use xlink:href="#mddf00c9328" x="327.705359" y="140.476812" style="stroke: #000000"/>
     <use xlink:href="#mddf00c9328" x="330.856702" y="132.114207" style="stroke: #000000"/>
     <use xlink:href="#mddf00c9328" x="327.108554" y="137.923731" style="stroke: #000000"/>
     <use xlink:href="#mddf00c9328" x="328.295726" y="168.636773" style="stroke: #000000"/>
     <use xlink:href="#mddf00c9328" x="332.572527" y="205.252069" style="stroke: #000000"/>
     <use xlink:href="#mddf00c9328" x="320.765527" y="200.147108" style="stroke: #000000"/>
     <use xlink:href="#mddf00c9328" x="327.354815" y="215.44508" style="stroke: #000000"/>
     <use xlink:href="#mddf00c9328" x="330.784711" y="261.325232" style="stroke: #000000"/>
     <use xlink:href="#mddf00c9328" x="334.15776" y="189.653612" style="stroke: #000000"/>
     <use xlink:href="#mddf00c9328" x="325.960506" y="142.10265" style="stroke: #000000"/>
     <use xlink:href="#mddf00c9328" x="326.637953" y="247.406817" style="stroke: #000000"/>
     <use xlink:href="#mddf00c9328" x="321.190379" y="147.549736" style="stroke: #000000"/>
     <use xlink:href="#mddf00c9328" x="330.772499" y="165.778728" style="stroke: #000000"/>
     <use xlink:href="#mddf00c9328" x="330.878772" y="111.218615" style="stroke: #000000"/>
     <use xlink:href="#mddf00c9328" x="317.64195" y="228.665344" style="stroke: #000000"/>
     <use xlink:href="#mddf00c9328" x="325.499792" y="228.307204" style="stroke: #000000"/>
     <use xlink:href="#mddf00c9328" x="320.230497" y="196.591423" style="stroke: #000000"/>
     <use xlink:href="#mddf00c9328" x="320.453749" y="196.915417" style="stroke: #000000"/>
     <use xlink:href="#mddf00c9328" x="329.945766" y="263.349702" style="stroke: #000000"/>
     <use xlink:href="#mddf00c9328" x="323.136441" y="175.193256" style="stroke: #000000"/>
     <use xlink:href="#mddf00c9328" x="323.712073" y="142.49897" style="stroke: #000000"/>
     <use xlink:href="#mddf00c9328" x="321.350449" y="241.232422" style="stroke: #000000"/>
     <use xlink:href="#mddf00c9328" x="330.68864" y="150.053668" style="stroke: #000000"/>
     <use xlink:href="#mddf00c9328" x="330.494972" y="156.450778" style="stroke: #000000"/>
     <use xlink:href="#mddf00c9328" x="332.301273" y="183.31124" style="stroke: #000000"/>
     <use xlink:href="#mddf00c9328" x="325.806975" y="197.236461" style="stroke: #000000"/>
     <use xlink:href="#mddf00c9328" x="330.002911" y="245.199802" style="stroke: #000000"/>
     <use xlink:href="#mddf00c9328" x="324.481714" y="217.22072" style="stroke: #000000"/>
     <use xlink:href="#mddf00c9328" x="327.009647" y="214.309118" style="stroke: #000000"/>
     <use xlink:href="#mddf00c9328" x="327.106289" y="148.950402" style="stroke: #000000"/>
     <use xlink:href="#mddf00c9328" x="327.631055" y="203.273083" style="stroke: #000000"/>
     <use xlink:href="#mddf00c9328" x="324.599541" y="124.829076" style="stroke: #000000"/>
     <use xlink:href="#mddf00c9328" x="332.640367" y="219.757152" style="stroke: #000000"/>
     <use xlink:href="#mddf00c9328" x="318.285834" y="199.781987" style="stroke: #000000"/>
     <use xlink:href="#mddf00c9328" x="331.029686" y="162.988222" style="stroke: #000000"/>
     <use xlink:href="#mddf00c9328" x="332.712372" y="203.756281" style="stroke: #000000"/>
     <use xlink:href="#mddf00c9328" x="319.55737" y="176.465634" style="stroke: #000000"/>
     <use xlink:href="#mddf00c9328" x="327.46037" y="223.267734" style="stroke: #000000"/>
     <use xlink:href="#mddf00c9328" x="322.769051" y="213.761438" style="stroke: #000000"/>
    </g>
   </g>
  </g>
 </g>
 <defs>
  <clipPath id="p4e7b39f333">
   <rect x="57.6" y="41.472" width="357.12" height="266.112"/>
  </clipPath>
 </defs>
</svg>
